<svg width="674" height="840" viewBox="0 0 674 840" fill="none" xmlns="http://www.w3.org/2000/svg">
<path fill-rule="evenodd" clip-rule="evenodd" d="M342.879 9.81308C407.361 -4.55478 481.632 -9.525 533.781 40.5775C585.542 90.3073 582.858 187.486 607.186 263.749C630.178 335.823 682.347 399.756 672.86 476.549C663.383 553.257 598.194 593.775 559.032 653.539C518.78 714.966 499.174 807.135 439.452 832.741C379.585 858.411 317.372 809.844 257.929 782.641C202.003 757.049 146.205 731.387 103.503 679.005C58.228 623.467 22.0861 555.315 8.98337 477.261C-4.61937 396.228 -6.24916 304.908 28.984 235.09C63.1879 167.312 135.509 156.675 190.786 117.003C242.307 80.0278 284.548 22.8103 342.879 9.81308Z" />
</svg>
