<svg width="600" height="636" viewBox="0 0 600 636" fill="none" xmlns="http://www.w3.org/2000/svg">
<path fill-rule="evenodd" clip-rule="evenodd" d="M307.309 3.93679C367.554 2.29484 431.847 -10.3012 483.679 20.4506C536.035 51.5138 564.513 110.805 584.408 168.34C603.065 222.294 602.563 279.688 592.767 335.93C583.196 390.875 565.573 444.877 528.92 486.914C492.331 528.877 438.8 547.199 388.236 570.501C328.91 597.841 272.36 642.151 207.42 635.076C139.108 627.634 69.9609 590.317 33.7963 531.887C-1.36191 475.083 26.9577 402.512 22.2325 335.875C17.9336 275.251 -14.0719 214.77 7.2743 157.866C29.0497 99.8172 81.8488 58.1993 137.011 29.8988C189.158 3.14571 248.722 5.53356 307.309 3.93679Z" fill="#7F9C96"/>
</svg>
