<svg id="visual" viewBox="0 0 900 600" width="900" height="600" xmlns="http://www.w3.org/2000/svg" xmlns:xlink="http://www.w3.org/1999/xlink" version="1.1"><rect x="0" y="0" width="900" height="600" fill="#001220"></rect><defs><linearGradient id="grad1_0" x1="33.3%" y1="100%" x2="100%" y2="0%"><stop offset="20%" stop-color="#fbae3c" stop-opacity="1"></stop><stop offset="80%" stop-color="#fbae3c" stop-opacity="1"></stop></linearGradient></defs><defs><linearGradient id="grad1_1" x1="33.3%" y1="100%" x2="100%" y2="0%"><stop offset="20%" stop-color="#fbae3c" stop-opacity="1"></stop><stop offset="80%" stop-color="#cc5867" stop-opacity="1"></stop></linearGradient></defs><defs><linearGradient id="grad1_2" x1="33.3%" y1="100%" x2="100%" y2="0%"><stop offset="20%" stop-color="#593762" stop-opacity="1"></stop><stop offset="80%" stop-color="#cc5867" stop-opacity="1"></stop></linearGradient></defs><defs><linearGradient id="grad1_3" x1="33.3%" y1="100%" x2="100%" y2="0%"><stop offset="20%" stop-color="#593762" stop-opacity="1"></stop><stop offset="80%" stop-color="#001220" stop-opacity="1"></stop></linearGradient></defs><defs><linearGradient id="grad2_0" x1="0%" y1="100%" x2="66.7%" y2="0%"><stop offset="20%" stop-color="#fbae3c" stop-opacity="1"></stop><stop offset="80%" stop-color="#fbae3c" stop-opacity="1"></stop></linearGradient></defs><defs><linearGradient id="grad2_1" x1="0%" y1="100%" x2="66.7%" y2="0%"><stop offset="20%" stop-color="#cc5867" stop-opacity="1"></stop><stop offset="80%" stop-color="#fbae3c" stop-opacity="1"></stop></linearGradient></defs><defs><linearGradient id="grad2_2" x1="0%" y1="100%" x2="66.7%" y2="0%"><stop offset="20%" stop-color="#cc5867" stop-opacity="1"></stop><stop offset="80%" stop-color="#593762" stop-opacity="1"></stop></linearGradient></defs><defs><linearGradient id="grad2_3" x1="0%" y1="100%" x2="66.7%" y2="0%"><stop offset="20%" stop-color="#001220" stop-opacity="1"></stop><stop offset="80%" stop-color="#593762" stop-opacity="1"></stop></linearGradient></defs><g transform="translate(900, 600)"><path d="M-151 0C-139.4 -12.5 -127.8 -25 -124.6 -40.5C-121.3 -56 -126.4 -74.4 -122.2 -88.8C-117.9 -103.1 -104.3 -113.4 -91.1 -125.4C-77.9 -137.4 -65.2 -151.2 -50.1 -154.3C-35 -157.4 -17.5 -149.7 0 -142L0 0Z" fill="#232745"></path><path d="M-113.2 0C-104.6 -9.4 -95.9 -18.8 -93.4 -30.4C-91 -42 -94.8 -55.8 -91.6 -66.6C-88.4 -77.3 -78.2 -85 -68.3 -94C-58.5 -103.1 -48.9 -113.4 -37.6 -115.7C-26.3 -118 -13.1 -112.3 0 -106.5L0 0Z" fill="#96446e"></path><path d="M-75.5 0C-69.7 -6.3 -63.9 -12.5 -62.3 -20.2C-60.7 -28 -63.2 -37.2 -61.1 -44.4C-58.9 -51.6 -52.1 -56.7 -45.6 -62.7C-39 -68.7 -32.6 -75.6 -25.1 -77.2C-17.5 -78.7 -8.8 -74.8 0 -71L0 0Z" fill="#f17c53"></path><path d="M-37.7 0C-34.9 -3.1 -32 -6.3 -31.1 -10.1C-30.3 -14 -31.6 -18.6 -30.5 -22.2C-29.5 -25.8 -26.1 -28.3 -22.8 -31.3C-19.5 -34.4 -16.3 -37.8 -12.5 -38.6C-8.8 -39.3 -4.4 -37.4 0 -35.5L0 0Z" fill="#fbae3c"></path></g><g transform="translate(0, 0)"><path d="M144 0C137.1 12.7 130.3 25.4 130.3 42.3C130.3 59.3 137.2 80.5 131.3 95.4C125.3 110.2 106.4 118.7 89.3 123C72.3 127.2 56.9 127.2 42.3 130.3C27.7 133.4 13.9 139.7 0 146L0 0Z" fill="#232745"></path><path d="M108 0C102.9 9.5 97.7 19 97.7 31.8C97.7 44.5 102.9 60.4 98.4 71.5C94 82.7 79.8 89.1 67 92.2C54.2 95.4 42.7 95.4 31.8 97.7C20.8 100.1 10.4 104.8 0 109.5L0 0Z" fill="#96446e"></path><path d="M72 0C68.6 6.3 65.1 12.7 65.1 21.2C65.2 29.6 68.6 40.3 65.6 47.7C62.6 55.1 53.2 59.4 44.7 61.5C36.1 63.6 28.5 63.6 21.2 65.1C13.9 66.7 6.9 69.9 0 73L0 0Z" fill="#f17c53"></path><path d="M36 0C34.3 3.2 32.6 6.3 32.6 10.6C32.6 14.8 34.3 20.1 32.8 23.8C31.3 27.6 26.6 29.7 22.3 30.7C18.1 31.8 14.2 31.8 10.6 32.6C6.9 33.4 3.5 34.9 0 36.5L0 0Z" fill="#fbae3c"></path></g></svg>