<svg width="15" height="15" viewBox="0 0 26 26" fill="none" xmlns="http://www.w3.org/2000/svg">
<path d="M1.34253 10.294C0.924675 10.6138 0.586426 11.0239 0.353712 11.493C0.120998 11.962 0 12.4775 0 13C0 13.5225 0.120998 14.038 0.353712 14.507C0.586426 14.9761 0.924675 15.3862 1.34253 15.706C6.75357 19.846 12.7958 23.1092 19.243 25.3734L20.4218 25.7875C22.6747 26.5782 25.0557 25.0717 25.3608 22.7709C26.2131 16.2842 26.2131 9.71578 25.3608 3.22911C25.0539 0.928298 22.6747 -0.578208 20.4218 0.21253L19.243 0.626642C12.7958 2.89084 6.75357 6.15401 1.34253 10.294Z" fill="#2E2D2D"/>
</svg>
