<svg className='arrow' width="15" height="15" viewBox="0 0 28 28" fill="none" xmlns="http://www.w3.org/2000/svg">
<path d="M27.1565 4.67036C27.2259 4.14878 27.175 3.61959 27.0079 3.12336C26.8408 2.62713 26.5618 2.17705 26.1924 1.80761C25.823 1.43818 25.3729 1.15921 24.8766 0.992088C24.3804 0.824968 23.8512 0.774136 23.3297 0.843492C16.5761 1.74226 9.99617 3.70733 3.83628 6.66515L2.70993 7.20587C0.55775 8.23977 -0.0606566 10.9887 1.35054 12.8314C5.33467 18.0208 9.97925 22.6653 15.1687 26.6495C17.0126 28.0594 19.7602 27.4423 20.7941 25.2901L21.3349 24.1637C24.2927 18.0038 26.2578 11.424 27.1565 4.67036Z" />
</svg>
